<svg width="24" height="24" viewBox="0 0 24 24" fill="none" xmlns="http://www.w3.org/2000/svg">
<path d="M12.0001 7.93719C9.75645 7.93719 7.93761 9.75603 7.93761 11.9997C7.93761 14.2433 9.75645 16.0622 12.0001 16.0622C14.2438 16.0622 16.0626 14.2433 16.0626 11.9997C16.0626 9.75603 14.2438 7.93719 12.0001 7.93719Z" fill="white"/>
<path fill-rule="evenodd" clip-rule="evenodd" d="M5.46203 0.851526C9.77218 0.369804 14.2281 0.369804 18.5382 0.851526C20.9112 1.11674 22.8252 2.98647 23.1037 5.36778C23.6191 9.77404 23.6191 14.2253 23.1037 18.6316C22.8252 21.0129 20.9112 22.8826 18.5382 23.1479C14.2281 23.6296 9.77218 23.6296 5.46203 23.1479C3.08903 22.8826 1.17504 21.0129 0.896523 18.6316C0.381172 14.2253 0.381172 9.77404 0.896523 5.36778C1.17504 2.98647 3.08903 1.11674 5.46203 0.851526ZM18.2501 4.49969C17.5597 4.49969 17.0001 5.05933 17.0001 5.74969C17.0001 6.44005 17.5597 6.99969 18.2501 6.99969C18.9405 6.99969 19.5001 6.44005 19.5001 5.74969C19.5001 5.05933 18.9405 4.49969 18.2501 4.49969ZM6.06261 11.9997C6.06261 8.7205 8.72092 6.06219 12.0001 6.06219C15.2793 6.06219 17.9376 8.7205 17.9376 11.9997C17.9376 15.2789 15.2793 17.9372 12.0001 17.9372C8.72092 17.9372 6.06261 15.2789 6.06261 11.9997Z" fill="white"/>
</svg>
