<svg width="25" height="23" viewBox="0 0 25 23" fill="none" xmlns="http://www.w3.org/2000/svg">
<path fill-rule="evenodd" clip-rule="evenodd" d="M21.1039 20.7378L21.1047 20.7356L21.1265 20.6812L24.875 1.78241V1.72102C24.875 1.25014 24.701 0.839069 24.3224 0.592495C23.991 0.376668 23.6101 0.361297 23.3429 0.381573C23.0604 0.403017 22.794 0.473536 22.6096 0.532236C22.5147 0.562436 22.4353 0.591534 22.3785 0.613542C22.35 0.624588 22.3269 0.633961 22.3101 0.640944L22.2936 0.647891L1.39383 8.84656L1.38808 8.84862C1.37679 8.85273 1.36187 8.8583 1.34384 8.86532C1.30789 8.87931 1.25897 8.89933 1.20149 8.92538C1.08864 8.97653 0.932723 9.05545 0.774595 9.16374C0.506029 9.34765 -0.00536377 9.78306 0.0809889 10.4733C0.152515 11.0451 0.546644 11.4082 0.812355 11.5962C0.954791 11.697 1.09106 11.7697 1.19084 11.8172C1.2414 11.8413 1.28435 11.8597 1.31633 11.8727C1.33237 11.8793 1.34578 11.8845 1.35615 11.8884L1.36943 11.8934L1.37792 11.8965L5.03447 13.1275C5.02213 13.3569 5.04489 13.5909 5.10573 13.8217L6.93733 20.7697C7.1545 21.5935 7.89979 22.1673 8.75175 22.1667C9.51541 22.1662 10.1927 21.7042 10.4804 21.0149L13.34 17.9573L18.2512 21.7226L18.3211 21.7531C18.7673 21.9478 19.1842 22.0095 19.5653 21.9574C19.946 21.9054 20.2484 21.7458 20.4756 21.564C20.6992 21.3852 20.8524 21.1833 20.9488 21.0313C20.9977 20.9541 21.0342 20.8862 21.0595 20.8351C21.0722 20.8095 21.0823 20.7878 21.0898 20.7708L21.0992 20.7491L21.1026 20.741L21.1039 20.7378ZM6.91873 13.3437C6.8771 13.1858 6.94245 13.0191 7.08031 12.9315L19.4828 5.0554C19.4828 5.0554 20.2123 4.61253 20.1862 5.0554C20.1862 5.0554 20.3164 5.13361 19.9255 5.49827C19.5548 5.84461 11.0859 14.0209 10.229 14.8483C10.1795 14.896 10.15 14.9508 10.1326 15.0173L8.75033 20.2917L6.91873 13.3437Z" fill="white"/>
</svg>
