<svg width="27" height="16" viewBox="0 0 27 16" fill="none" xmlns="http://www.w3.org/2000/svg">
<path d="M25.8793 15.9762H23.0274C21.9485 15.9762 21.624 15.1025 19.6888 13.1673C18 11.5391 17.2865 11.3358 16.8585 11.3358C16.2681 11.3358 16.1059 11.498 16.1059 12.3131V14.8777C16.1059 15.5716 15.8811 15.9782 14.0691 15.9782C12.3106 15.86 10.6053 15.3257 9.09366 14.4194C7.58205 13.513 6.3074 12.2605 5.37468 10.765C3.16036 8.00891 1.61962 4.77417 0.875 1.31803C0.875 0.889954 1.03724 0.502927 1.85234 0.502927H4.70227C5.43528 0.502927 5.69916 0.829359 5.9865 1.58191C7.37042 5.65547 9.73167 9.19736 10.6895 9.19736C11.0569 9.19736 11.2172 9.03512 11.2172 8.11838V3.92362C11.096 2.00999 10.0796 1.84775 10.0796 1.15579C10.0927 0.973279 10.1763 0.803033 10.3128 0.681152C10.4493 0.559272 10.6278 0.495344 10.8107 0.502927H15.2908C15.9026 0.502927 16.1059 0.807857 16.1059 1.54086V7.20163C16.1059 7.81345 16.3698 8.01673 16.5535 8.01673C16.921 8.01673 17.2044 7.81345 17.8768 7.14103C19.3211 5.37976 20.5011 3.41751 21.3796 1.31608C21.4694 1.06365 21.6394 0.847545 21.8635 0.700726C22.0876 0.553907 22.3536 0.48444 22.6209 0.502927H25.4727C26.3269 0.502927 26.5087 0.931003 26.3269 1.54086C25.29 3.86387 24.0069 6.06898 22.4997 8.11838C22.1928 8.5875 22.0696 8.83184 22.4997 9.3811C22.7831 9.80918 23.7819 10.6438 24.4544 11.4374C25.4315 12.4121 26.243 13.5398 26.8567 14.776C27.101 15.5696 26.6925 15.9762 25.8793 15.9762Z" fill="white"/>
</svg>
