<svg width="24" height="28" viewBox="0 0 24 28" fill="none" xmlns="http://www.w3.org/2000/svg">
<path d="M12 6.71563C8.10536 6.71563 4.93929 9.94766 4.93393 13.9234C4.93393 15.2852 5.30893 16.6141 6.01607 17.757L6.18214 18.0305L5.46964 20.6883L8.14286 19.9719L8.4 20.1305C9.48214 20.7867 10.725 21.1367 11.9946 21.1367H12C15.8893 21.1367 19.1411 17.9047 19.1411 13.9289C19.1411 12.0039 18.3268 10.1938 16.9929 8.83203C15.6536 7.46484 13.8857 6.71563 12 6.71563ZM16.1518 17.0188C15.975 17.5273 15.1286 17.9867 14.7214 18.0469C14.0464 18.1508 13.5214 18.0961 12.1768 17.5055C10.05 16.5648 8.65714 14.3773 8.55 14.2352C8.44286 14.093 7.68214 13.0594 7.68214 11.993C7.68214 10.9266 8.22857 10.4016 8.42679 10.1828C8.61964 9.96406 8.85 9.90938 8.99464 9.90938C9.13393 9.90938 9.27857 9.90938 9.40179 9.91484C9.53036 9.92031 9.70714 9.86563 9.87857 10.2867C10.0554 10.7188 10.4786 11.7852 10.5321 11.8945C10.5857 12.0039 10.6232 12.1297 10.5482 12.2719C10.1411 13.1031 9.70714 13.0703 9.92679 13.4531C10.7464 14.8914 11.5661 15.3891 12.8143 16.0289C13.0286 16.1383 13.1518 16.1219 13.275 15.9742C13.3982 15.832 13.8054 15.3398 13.9446 15.1266C14.0839 14.9078 14.2286 14.9461 14.4214 15.0172C14.6143 15.0883 15.6589 15.6133 15.8732 15.7227C16.0875 15.832 16.2268 15.8867 16.2804 15.9742C16.3286 16.0781 16.3286 16.5156 16.1518 17.0188ZM21.4286 1.75H2.57143C1.15179 1.75 0 2.92578 0 4.375V23.625C0 25.0742 1.15179 26.25 2.57143 26.25H21.4286C22.8482 26.25 24 25.0742 24 23.625V4.375C24 2.92578 22.8482 1.75 21.4286 1.75ZM11.9946 22.5969C10.5696 22.5969 9.17143 22.2305 7.93393 21.5414L3.42857 22.75L4.63393 18.2547C3.88929 16.9422 3.49821 15.4492 3.49821 13.918C3.50357 9.13828 7.3125 5.25 11.9946 5.25C14.2661 5.25 16.3982 6.15234 18.0054 7.79297C19.6071 9.43359 20.5714 11.6102 20.5714 13.9289C20.5714 18.7086 16.6768 22.5969 11.9946 22.5969Z" fill="white"/>
</svg>
