<svg width="114" height="35" viewBox="0 0 114 35" fill="none" xmlns="http://www.w3.org/2000/svg">
<g clip-path="url(#clip0_1387_3067)">
<path d="M36.011 9.72H37.911L34.9363 1.15219H32.8285L29.8478 9.72H31.6944L32.3475 7.64188H35.3578L36.011 9.72ZM33.8319 2.79094H33.8735L34.9719 6.3H32.7335L33.8319 2.79094ZM42.6847 9.72C44.5135 9.72 45.6475 8.77594 45.6475 7.26781C45.6475 6.13375 44.7925 5.28469 43.6288 5.19563V5.14813C44.5372 5.01156 45.2378 4.22781 45.2378 3.28969C45.2378 1.9775 44.2285 1.15219 42.6194 1.15219H38.8906V9.72H42.6847ZM40.6838 2.48813H42.1563C42.9935 2.48813 43.4744 2.88 43.4744 3.56875C43.4744 4.29313 42.9281 4.71469 41.9722 4.71469H40.6838V2.48813ZM40.6838 8.38406V5.89625H42.186C43.2428 5.89625 43.8188 6.32375 43.8188 7.12531C43.8188 7.94469 43.2606 8.38406 42.2275 8.38406H40.6838ZM50.2847 9.72V2.63063H52.7606V1.15219H46.0097V2.63063H48.4916V9.72H50.2847ZM57.2019 1.00375C54.6666 1.00375 53.0694 2.70781 53.0694 5.43906C53.0694 8.16438 54.6606 9.8625 57.2019 9.8625C59.7431 9.8625 61.3344 8.16438 61.3344 5.43906C61.3344 2.70781 59.7431 1.00375 57.2019 1.00375ZM57.2019 2.5C58.6031 2.5 59.5056 3.64 59.5056 5.43906C59.5056 7.23219 58.6091 8.36625 57.2019 8.36625C55.8006 8.36625 54.9041 7.23219 54.9041 5.43906C54.9041 3.64 55.8006 2.5 57.2019 2.5Z" fill="black"/>
<path d="M42.8509 21.12H44.7509L41.7762 12.5522H39.6684L36.6878 21.12H38.5344L39.1875 19.0419H42.1978L42.8509 21.12ZM40.6719 14.1909H40.7134L41.8119 17.7H39.5734L40.6719 14.1909ZM45.7187 12.5522V21.12H47.5119V18.4184H49.109C50.914 18.4184 52.1669 17.2428 52.1669 15.4853C52.1669 13.7219 50.9615 12.5522 49.204 12.5522H45.7187ZM47.5119 13.9712H48.729C49.7503 13.9712 50.35 14.5175 50.35 15.4912C50.35 16.4709 49.7503 17.0172 48.7172 17.0172H47.5119V13.9712ZM58.995 19.6356H55.1119V17.4744H58.7753V16.0969H55.1119V14.0306H58.995V12.5522H53.3187V21.12H58.995V19.6356ZM67.83 21.12V12.5522H66.0369V16.0316H62.1775V12.5522H60.3844V21.12H62.1775V17.51H66.0369V21.12H67.83ZM70.3653 21.12H76V22.8122H77.6209V19.6356H76.5522V12.5522H70.4781L70.1812 17.3912C70.11 18.555 69.9378 19.2259 69.3381 19.6356H68.7384V22.8122H70.3653V21.12ZM71.8319 17.5278L72.0575 14.0247H74.759V19.6356H71.2619V19.5881C71.6419 19.1428 71.7665 18.4837 71.8319 17.5278ZM84.2353 21.12H86.1353L83.1606 12.5522H81.0528L78.0722 21.12H79.9187L80.5719 19.0419H83.5822L84.2353 21.12ZM82.0562 14.1909H82.0978L83.1962 17.7H80.9578L82.0562 14.1909Z" fill="black"/>
<path d="M45.8553 32.52H51.49V34.2122H53.1109V31.0356H52.0421V23.9522H45.9681L45.6712 28.7912C45.6 29.955 45.4278 30.6259 44.8281 31.0356H44.2284V34.2122H45.8553V32.52ZM47.3218 28.9278L47.5475 25.4247H50.249V31.0356H46.7518V30.9881C47.1318 30.5428 47.2565 29.8837 47.3218 28.9278ZM57.9203 32.52C59.749 32.52 60.8831 31.5759 60.8831 30.0678C60.8831 28.9337 60.0281 28.0847 58.8643 27.9956V27.9481C59.7728 27.8116 60.4734 27.0278 60.4734 26.0897C60.4734 24.7775 59.464 23.9522 57.855 23.9522H54.1262V32.52H57.9203ZM55.9193 25.2881H57.3918C58.229 25.2881 58.71 25.68 58.71 26.3687C58.71 27.0931 58.1637 27.5147 57.2078 27.5147H55.9193V25.2881ZM55.9193 31.1841V28.6962H57.4215C58.4784 28.6962 59.0543 29.1237 59.0543 29.9253C59.0543 30.7447 58.4962 31.1841 57.4631 31.1841H55.9193ZM67.7112 32.52H69.4984V23.9522H67.7706L63.8815 29.7531H63.8103V23.9522H62.0231V32.52H63.7509L67.64 26.725H67.7112V32.52ZM77.2468 27.58V23.9522H75.5012V27.58H75.4537L72.5978 23.9522H70.5731L73.8684 28.0431L70.3653 32.52H72.5146L75.4537 28.7556H75.5012V32.52H77.2468V28.7556H77.2943L80.2215 32.52H82.4125L78.8737 28.0194L82.1571 23.9522H80.1562L77.2943 27.58H77.2468ZM88.9437 31.0356H85.0606V28.8744H88.724V27.4969H85.0606V25.4306H88.9437V23.9522H83.2675V32.52H88.9437V31.0356ZM97.7787 32.52V23.9522H95.9856V27.4316H92.1262V23.9522H90.3331V32.52H92.1262V28.91H95.9856V32.52H97.7787ZM104.999 32.52H106.786V23.9522H105.058L101.169 29.7531H101.098V23.9522H99.3106V32.52H101.038L104.927 26.725H104.999V32.52ZM114 31.0356H110.117V28.8744H113.78V27.4969H110.117V25.4306H114V23.9522H108.324V32.52H114V31.0356Z" fill="black"/>
<path d="M8.57101 33.06L19.7601 13.68L30.9491 33.06H8.57101Z" stroke="black" stroke-width="2.28"/>
<path d="M6.83997 24.7H32.68" stroke="black" stroke-width="2.28"/>
<path d="M1.98912 33.06L19.76 2.28L37.5308 33.06H1.98912Z" stroke="black" stroke-width="2.28"/>
</g>
<defs>
<clipPath id="clip0_1387_3067">
<rect width="114" height="34.2" fill="white"/>
</clipPath>
</defs>
</svg>
