<svg width="187" height="55" viewBox="0 0 187 55" fill="none" xmlns="http://www.w3.org/2000/svg">
<path d="M10.913 32.1262H21.6281L31.2251 49.6776H37.7784L27.4049 31.2656C33.0265 29.5135 36.4118 24.7184 36.4118 18.5401C36.4118 10.5482 30.7592 5.32275 22.125 5.32275H5.32251V49.6776H10.913V32.1262ZM10.913 10.2408H21.3796C27.1565 10.2408 30.635 13.4068 30.635 18.7245C30.635 24.1651 27.3739 27.2389 21.6281 27.2389H10.913V10.2408Z" fill="black"/>
<rect x="0.5" y="0.5" width="50.4516" height="54" stroke="black"/>
<path d="M45.8322 10.5558V6.74194H44.5371L43.6861 9.0123H43.665L42.8113 6.74194H41.5162V10.5558H42.4941V8.34626H42.5152L43.3742 10.5558H43.9742L44.8332 8.34626H44.8543V10.5558H45.8322Z" fill="black"/>
<path d="M43.768 14.1938C42.5892 14.1938 41.8466 14.9497 41.8466 16.1681C41.8466 17.3866 42.5866 18.1398 43.768 18.1398C44.9468 18.1398 45.6895 17.3866 45.6895 16.1681C45.6895 14.9497 44.9468 14.1938 43.768 14.1938ZM43.768 15.0871C44.2358 15.0871 44.5477 15.5074 44.5477 16.1681C44.5477 16.8262 44.2385 17.2465 43.768 17.2465C43.2976 17.2465 42.9883 16.8262 42.9883 16.1681C42.9883 15.5074 43.3002 15.0871 43.768 15.0871Z" fill="black"/>
<path d="M44.2358 25.5917V22.6685H45.2402V21.7778H42.1109V22.6685H43.1152V25.5917H44.2358Z" fill="black"/>
<path d="M44.2358 33.1096V29.2957H43.1152V33.1096H44.2358Z" fill="black"/>
<path d="M43.6755 36.7476C42.4967 36.7476 41.754 37.5035 41.754 38.7219C41.754 39.9403 42.4941 40.6936 43.6755 40.6936C44.8543 40.6936 45.597 39.9403 45.597 38.7219C45.597 37.5035 44.8543 36.7476 43.6755 36.7476ZM43.6755 37.6409C44.1433 37.6409 44.4552 38.0612 44.4552 38.7219C44.4552 39.38 44.146 39.8003 43.6755 39.8003C43.2051 39.8003 42.8958 39.38 42.8958 38.7219C42.8958 38.0612 43.2077 37.6409 43.6755 37.6409Z" fill="black"/>
<path d="M43.0227 48.1455V46.1368H43.0438L44.5266 48.1455H45.3856V44.3316H44.3283V46.3086H44.3072L42.835 44.3316H41.9655V48.1455H43.0227Z" fill="black"/>
<path d="M59.1836 16.4961H62.793L66.2383 23H69.2617L65.4766 16.0859C67.5391 15.3945 68.7578 13.543 68.7578 11.2578C68.7578 8.10547 66.5898 6.08984 63.1094 6.08984H56.5586V23H59.1836V16.4961ZM59.1836 8.29297H62.793C64.8203 8.29297 66.0508 9.44141 66.0508 11.3281C66.0508 13.2617 64.8906 14.375 62.8633 14.375H59.1836V8.29297ZM79.1172 19.3789C78.7773 20.457 77.7109 21.1836 76.2695 21.1836C74.2422 21.1836 72.9531 19.7656 72.9531 17.6211V17.4688H81.6602V16.6016C81.6602 12.8633 79.5273 10.4492 76.1055 10.4492C72.625 10.4492 70.3984 13.0273 70.3984 16.8945C70.3984 20.7852 72.5898 23.2344 76.2109 23.2344C79.0352 23.2344 81.168 21.6289 81.5195 19.3789H79.1172ZM76.1055 12.4883C77.875 12.4883 79.0703 13.8125 79.1289 15.6992H72.9648C73.0938 13.8359 74.3359 12.4883 76.1055 12.4883ZM83.6289 23H86.1602V15.8164C86.1602 13.9062 87.3086 12.6406 89.0898 12.6406C90.8477 12.6406 91.7148 13.6602 91.7148 15.5117V23H94.2578V15.0195C94.2578 12.1953 92.6992 10.4609 89.9805 10.4609C88.082 10.4609 86.7695 11.3281 86.1016 12.7344H86.043V10.6719H83.6289V23ZM97.4453 7.75391V10.6719H95.6523V12.6758H97.4453V19.7539C97.4453 22.1328 98.418 23.082 100.914 23.082C101.477 23.082 102.039 23.0352 102.32 22.9648V20.9609C102.156 20.9961 101.746 21.0195 101.488 21.0195C100.457 21.0195 99.9883 20.5391 99.9883 19.4727V12.6758H102.332V10.6719H99.9883V7.75391H97.4453Z" fill="black"/>
<path d="M67.5742 49H70.3516L64.2461 32.0898H61.4102L55.3047 49H58.0352L59.582 44.4297H66.0273L67.5742 49ZM62.7695 34.9023H62.8398L65.3594 42.3203H60.25L62.7695 34.9023ZM82.1055 36.6719H79.5742V43.8555C79.5742 45.7773 78.4727 47.043 76.6445 47.043C74.8984 47.043 74.0078 46.0352 74.0078 44.1602V36.6719H71.4766V44.6523C71.4766 47.4766 73.1172 49.2227 75.8008 49.2227C77.6875 49.2227 78.9414 48.3906 79.6211 46.9141H79.6797V49H82.1055V36.6719ZM85.3516 33.7539V36.6719H83.5586V38.6758H85.3516V45.7539C85.3516 48.1328 86.3242 49.082 88.8203 49.082C89.3828 49.082 89.9453 49.0352 90.2266 48.9648V46.9609C90.0625 46.9961 89.6523 47.0195 89.3945 47.0195C88.3633 47.0195 87.8945 46.5391 87.8945 45.4727V38.6758H90.2383V36.6719H87.8945V33.7539H85.3516ZM97.3164 49.2344C100.844 49.2344 103.164 46.8086 103.164 42.8359C103.164 38.875 100.832 36.4492 97.3164 36.4492C93.8008 36.4492 91.4688 38.875 91.4688 42.8359C91.4688 46.8086 93.7891 49.2344 97.3164 49.2344ZM97.3164 47.1484C95.3359 47.1484 94.0469 45.5781 94.0469 42.8359C94.0469 40.1055 95.3359 38.5352 97.3164 38.5352C99.2969 38.5352 100.586 40.1055 100.586 42.8359C100.586 45.5781 99.3086 47.1484 97.3164 47.1484ZM112.914 43.2812V40.9961H105.227V43.2812H112.914ZM132.941 49V32.0898H129.895L124.434 45.5664H124.34L118.867 32.0898H115.832V49H118.223V36.5547H118.305L123.414 49H125.359L130.457 36.5547H130.539V49H132.941ZM141.051 49.2344C144.578 49.2344 146.898 46.8086 146.898 42.8359C146.898 38.875 144.566 36.4492 141.051 36.4492C137.535 36.4492 135.203 38.875 135.203 42.8359C135.203 46.8086 137.523 49.2344 141.051 49.2344ZM141.051 47.1484C139.07 47.1484 137.781 45.5781 137.781 42.8359C137.781 40.1055 139.07 38.5352 141.051 38.5352C143.031 38.5352 144.32 40.1055 144.32 42.8359C144.32 45.5781 143.043 47.1484 141.051 47.1484ZM149.594 33.7539V36.6719H147.801V38.6758H149.594V45.7539C149.594 48.1328 150.566 49.082 153.062 49.082C153.625 49.082 154.188 49.0352 154.469 48.9648V46.9609C154.305 46.9961 153.895 47.0195 153.637 47.0195C152.605 47.0195 152.137 46.5391 152.137 45.4727V38.6758H154.48V36.6719H152.137V33.7539H149.594ZM157.914 34.6797C158.723 34.6797 159.367 34.0234 159.367 33.2266C159.367 32.418 158.723 31.7734 157.914 31.7734C157.105 31.7734 156.449 32.418 156.449 33.2266C156.449 34.0234 157.105 34.6797 157.914 34.6797ZM156.648 49H159.18V36.6719H156.648V49ZM167.066 49.2344C170.594 49.2344 172.914 46.8086 172.914 42.8359C172.914 38.875 170.582 36.4492 167.066 36.4492C163.551 36.4492 161.219 38.875 161.219 42.8359C161.219 46.8086 163.539 49.2344 167.066 49.2344ZM167.066 47.1484C165.086 47.1484 163.797 45.5781 163.797 42.8359C163.797 40.1055 165.086 38.5352 167.066 38.5352C169.047 38.5352 170.336 40.1055 170.336 42.8359C170.336 45.5781 169.059 47.1484 167.066 47.1484ZM174.871 49H177.402V41.8164C177.402 39.9062 178.551 38.6406 180.332 38.6406C182.09 38.6406 182.957 39.6602 182.957 41.5117V49H185.5V41.0195C185.5 38.1953 183.941 36.4609 181.223 36.4609C179.324 36.4609 178.012 37.3281 177.344 38.7344H177.285V36.6719H174.871V49Z" fill="black"/>
<path d="M31.3541 49H33L24.54 32H22.615L16 49.5H18.5L20.1351 44.2778H28.8649L31.3541 49ZM23.4929 34.58H24L27.7162 41.9167H21.0541L23.4929 34.58Z" fill="black"/>
</svg>
